<svg width="158" height="160" viewBox="0 0 158 160" fill="none" xmlns="http://www.w3.org/2000/svg">
<path d="M2.5 157.5V82.5H76.5V157.5H2.5Z" fill="url(#paint0_linear_107_31)"/>
<path d="M2.5 157.5V82.5H76.5V157.5H2.5Z" stroke="url(#paint1_linear_107_31)" stroke-width="5"/>
<path d="M2.5 157.5V82.5H76.5V157.5H2.5Z" stroke="#292929" stroke-width="5"/>
<path d="M2.5 77.5V2.5H76.5V77.5H2.5Z" fill="url(#paint2_linear_107_31)"/>
<path d="M2.5 77.5V2.5H76.5V77.5H2.5Z" stroke="url(#paint3_linear_107_31)" stroke-width="5"/>
<path d="M2.5 77.5V2.5H76.5V77.5H2.5Z" stroke="#292929" stroke-width="5"/>
<path d="M81.5 157.5V82.5H155.5V157.5H81.5Z" fill="url(#paint4_linear_107_31)" stroke="#292929" stroke-width="5"/>
<path d="M81.5 77.5V2.5H155.5V77.5H81.5Z" fill="url(#paint5_linear_107_31)"/>
<path d="M81.5 77.5V2.5H155.5V77.5H81.5Z" stroke="url(#paint6_linear_107_31)" stroke-width="5"/>
<path d="M81.5 77.5V2.5H155.5V77.5H81.5Z" stroke="#292929" stroke-width="5"/>
<defs>
<linearGradient id="paint0_linear_107_31" x1="79" y1="80" x2="5.64471e-06" y2="160" gradientUnits="userSpaceOnUse">
<stop stop-color="#42A4FF"/>
<stop offset="1" stop-color="#CD69CF"/>
</linearGradient>
<linearGradient id="paint1_linear_107_31" x1="79" y1="80" x2="8.1598e-07" y2="160" gradientUnits="userSpaceOnUse">
<stop stop-color="#666666"/>
<stop offset="1"/>
</linearGradient>
<linearGradient id="paint2_linear_107_31" x1="79" y1="-4.64991e-06" x2="5.64471e-06" y2="80" gradientUnits="userSpaceOnUse">
<stop stop-color="#42A4FF"/>
<stop offset="1" stop-color="#CD69CF"/>
</linearGradient>
<linearGradient id="paint3_linear_107_31" x1="79" y1="9.29982e-06" x2="8.1598e-07" y2="80" gradientUnits="userSpaceOnUse">
<stop stop-color="#666666"/>
<stop offset="1"/>
</linearGradient>
<linearGradient id="paint4_linear_107_31" x1="158" y1="80" x2="79" y2="160" gradientUnits="userSpaceOnUse">
<stop stop-color="#42A4FF"/>
<stop offset="1" stop-color="#CD69CF"/>
</linearGradient>
<linearGradient id="paint5_linear_107_31" x1="158" y1="-4.64991e-06" x2="79" y2="80" gradientUnits="userSpaceOnUse">
<stop stop-color="#42A4FF"/>
<stop offset="1" stop-color="#CD69CF"/>
</linearGradient>
<linearGradient id="paint6_linear_107_31" x1="158" y1="9.29982e-06" x2="79" y2="80" gradientUnits="userSpaceOnUse">
<stop stop-color="#666666"/>
<stop offset="1"/>
</linearGradient>
</defs>
</svg>
